<?xml version="1.0" standalone="no"?><svg xmlns="http://www.w3.org/2000/svg" viewBox="0 0 1440 320"><path fill="#483D8B" fill-opacity="0.15" d="M0,128L20,144C40,160,80,192,120,176C160,160,200,96,240,74.7C280,53,320,75,360,74.7C400,75,440,53,480,69.3C520,85,560,139,600,154.7C640,171,680,149,720,122.7C760,96,800,64,840,90.7C880,117,920,203,960,224C1000,245,1040,203,1080,160C1120,117,1160,75,1200,85.3C1240,96,1280,160,1320,165.3C1360,171,1400,117,1420,90.7L1440,64L1440,0L1420,0C1400,0,1360,0,1320,0C1280,0,1240,0,1200,0C1160,0,1120,0,1080,0C1040,0,1000,0,960,0C920,0,880,0,840,0C800,0,760,0,720,0C680,0,640,0,600,0C560,0,520,0,480,0C440,0,400,0,360,0C320,0,280,0,240,0C200,0,160,0,120,0C80,0,40,0,20,0L0,0Z"></path></svg>